<svg width="0" height="0" class="hidden">
    <symbol fill="none" xmlns="http://www.w3.org/2000/svg" viewBox="0 0 24 24" id="close">
        <path d="m9.17 14.83 5.66-5.66M14.83 14.83 9.17 9.17M9 22h6c5 0 7-2 7-7V9c0-5-2-7-7-7H9C4 2 2 4 2 9v6c0 5 2 7 7 7Z" stroke-width="1.5" stroke-linecap="round" stroke-linejoin="round"></path>
    </symbol>
    <symbol fill="none" xmlns="http://www.w3.org/2000/svg" viewBox="0 0 24 24" id="arrow">
        <path d="M9 22h6c5 0 7-2 7-7V9c0-5-2-7-7-7H9C4 2 2 4 2 9v6c0 5 2 7 7 7Z" stroke-width="1.5" stroke-linecap="round" stroke-linejoin="round"></path>
        <path d="M10.74 15.53 14.26 12l-3.52-3.53" stroke-width="1.5" stroke-linecap="round" stroke-linejoin="round"></path>
    </symbol>
    <symbol fill="none" xmlns="http://www.w3.org/2000/svg" viewBox="0 0 24 24" id="upload">
        <path d="M9 17v-6l-2 2M9 11l2 2" stroke-width="1.5" stroke-linecap="round" stroke-linejoin="round"></path>
        <path d="M22 10v5c0 5-2 7-7 7H9c-5 0-7-2-7-7V9c0-5 2-7 7-7h5" stroke-width="1.5" stroke-linecap="round" stroke-linejoin="round"></path>
        <path d="M22 10h-4c-3 0-4-1-4-4V2l8 8Z" stroke-width="1.5" stroke-linecap="round" stroke-linejoin="round"></path>
    </symbol>
    <symbol fill="none" xmlns="http://www.w3.org/2000/svg" viewBox="0 0 24 24" id="download">
        <path d="M9 11v6l2-2M9 17l-2-2" stroke-width="1.5" stroke-linecap="round" stroke-linejoin="round"></path>
        <path d="M22 10v5c0 5-2 7-7 7H9c-5 0-7-2-7-7V9c0-5 2-7 7-7h5" stroke-width="1.5" stroke-linecap="round" stroke-linejoin="round"></path>
        <path d="M22 10h-4c-3 0-4-1-4-4V2l8 8Z" stroke-width="1.5" stroke-linecap="round" stroke-linejoin="round"></path>
    </symbol>
    <symbol fill="none" xmlns="http://www.w3.org/2000/svg" viewBox="0 0 24 24" id="new">
        <path d="M22 10v5c0 5-2 7-7 7H9c-5 0-7-2-7-7V9c0-5 2-7 7-7h5" stroke-width="1.5" stroke-linecap="round" stroke-linejoin="round"></path>
        <path d="M22 10h-4c-3 0-4-1-4-4V2l8 8Z" stroke-width="1.5" stroke-linecap="round" stroke-linejoin="round"></path>
    </symbol>
    <symbol fill="none" xmlns="http://www.w3.org/2000/svg" viewBox="0 0 24 24" id="trash">
        <path d="M21 5.98c-3.33-.33-6.68-.5-10.02-.5-1.98 0-3.96.1-5.94.3L3 5.98M8.5 4.97l.22-1.31C8.88 2.71 9 2 10.69 2h2.62c1.69 0 1.82.75 1.97 1.67l.22 1.3M18.85 9.14l-.65 10.07C18.09 20.78 18 22 15.21 22H8.79C6 22 5.91 20.78 5.8 19.21L5.15 9.14M10.33 16.5h3.33M9.5 12.5h5" stroke-width="1.5" stroke-linecap="round" stroke-linejoin="round"></path>
    </symbol>
    <symbol fill="none" xmlns="http://www.w3.org/2000/svg" viewBox="0 0 24 24" id="minus">
        <path d="M8 12h8M9 22h6c5 0 7-2 7-7V9c0-5-2-7-7-7H9C4 2 2 4 2 9v6c0 5 2 7 7 7Z" stroke-width="1.5" stroke-linecap="round" stroke-linejoin="round"></path>
    </symbol>
    <symbol fill="none" xmlns="http://www.w3.org/2000/svg" viewBox="0 0 24 24" id="plus">
        <path d="M8 12h8M12 16V8M9 22h6c5 0 7-2 7-7V9c0-5-2-7-7-7H9C4 2 2 4 2 9v6c0 5 2 7 7 7Z" stroke-width="1.5" stroke-linecap="round" stroke-linejoin="round"></path>
    </symbol>
</svg>
