<svg width="200" height="200" viewBox="0 0 200 200" fill="none" xmlns="http://www.w3.org/2000/svg"><g clip-path="url(#a)"><path fill="#fff" d="M0 0h200v200H0z"/><path fill="#1752FE" d="M10.44-59.635 269.676 9.827l-47.07 175.67-259.237-69.462z"/><path d="m8.496 50.793-2.588 9.66M7.202 55.622c10.566 3.452 14.848 8.982 10.793 24.115l-5.332 19.898C9.11 112.9 4.112 118.67-11.987 114.357l-19.318-5.177c-16.1-4.313-17.542-11.809-13.987-25.074l5.331-19.898c4.055-15.133 10.52-17.75 21.405-15.488l25.758 6.902ZM-9.266 1.17l25.758 6.902M-12.717 14.049l16.099 4.314M27.908-21.654C38.474-18.2 42.755-12.67 38.7 2.461L33.37 22.36c-3.555 13.265-8.552 19.035-24.65 14.721L-10.6 31.905C-26.699 27.59-28.14 20.095-24.587 6.83l5.332-19.898C-15.2-28.2-8.736-30.817 2.15-28.555l25.758 6.901ZM60.012 64.596l-2.588 9.659M85.77 71.498l-2.588 9.66M47.302 99.15l25.758 6.902M43.852 112.029l16.098 4.314M84.476 76.327c10.566 3.452 14.848 8.982 10.793 24.115l-5.332 19.898c-3.554 13.265-8.551 19.035-24.65 14.722l-19.319-5.177c-16.098-4.313-17.54-11.809-13.986-25.074l5.331-19.898c4.055-15.133 10.52-17.75 21.405-15.488l25.758 6.902ZM80.718-12.678l-2.588 9.66M106.476-5.775l-2.589 9.659M68.008 21.877l25.758 6.902M64.557 34.756l16.099 4.313M105.181-.947c10.567 3.453 14.848 8.983 10.793 24.116l-5.331 19.898c-3.555 13.265-8.552 19.035-24.65 14.721l-19.319-5.176c-16.099-4.314-17.541-11.81-13.987-25.075L58.02 7.64C62.074-7.493 68.538-10.11 79.424-7.848L105.18-.947ZM137.287 85.3l-2.589 9.66M163.044 92.203l-2.588 9.659M124.577 119.855l25.758 6.902M121.126 132.734l16.099 4.314M161.75 97.032c10.567 3.452 14.848 8.982 10.793 24.115l-5.331 19.898c-3.555 13.265-8.552 19.035-24.651 14.722l-19.318-5.177c-16.099-4.313-17.541-11.809-13.987-25.074l5.332-19.898c4.055-15.133 10.519-17.75 21.404-15.488l25.758 6.902ZM157.992 8.027l-2.588 9.66M183.75 14.93l-2.588 9.659M145.282 42.582l25.758 6.902M141.832 55.46l16.098 4.315M182.456 19.759c10.566 3.452 14.848 8.982 10.793 24.115l-5.332 19.898c-3.554 13.265-8.551 19.035-24.65 14.721l-19.318-5.176c-16.099-4.314-17.542-11.81-13.987-25.074l5.331-19.899c4.055-15.132 10.519-17.748 21.405-15.487l25.758 6.902ZM203.161-57.517c10.567 3.453 14.848 8.982 10.793 24.115l-5.331 19.898c-3.555 13.266-8.552 19.036-24.65 14.722l-19.319-5.176c-16.099-4.314-17.541-11.81-13.987-25.075l5.332-19.898c4.055-15.133 10.519-17.749 21.404-15.488l25.758 6.902ZM201.851 140.561l25.758 6.901M198.4 153.439l16.099 4.314M239.024 117.737c10.567 3.452 14.848 8.982 10.793 24.115l-5.331 19.898c-3.555 13.266-8.552 19.036-24.651 14.722l-19.318-5.177c-16.099-4.313-17.541-11.809-13.987-25.074l5.332-19.898c4.055-15.133 10.519-17.749 21.404-15.488l25.758 6.902Z" stroke="#fff" stroke-width="5" stroke-miterlimit="10" stroke-linecap="round" stroke-linejoin="round"/></g><defs><clipPath id="a"><path fill="#fff" d="M0 0h200v200H0z"/></clipPath></defs></svg>