<svg width="200" height="200" viewBox="0 0 200 200" fill="none" xmlns="http://www.w3.org/2000/svg"><g clip-path="url(#a)"><path fill="#fff" d="M0 0h200v200H0z"/><path fill="#007dff" d="M10.44-59.635 269.676 9.827l-47.07 175.67-259.237-69.462z"/><path d="M131.966-32.64 123.339-.442c-2.588 9.66-9.143 14.805-20.413 11.785L77.168 4.441C65.9 1.421 62.795-6.312 65.383-15.97l8.628-32.198c2.588-9.66 9.143-14.805 20.412-11.785l25.758 6.902c11.269 3.02 14.373 10.753 11.785 20.412ZM209.241-11.935l-8.628 32.198c-2.588 9.66-9.143 14.805-20.412 11.785l-25.758-6.902c-11.269-3.02-14.374-10.753-11.785-20.412l8.627-32.198c2.588-9.659 9.143-14.804 20.412-11.785l25.758 6.902c11.27 3.02 14.374 10.753 11.786 20.412ZM162.208-3.832l12.879 3.45M158.757 9.047l25.758 6.902M33.987 23.929l-8.628 32.197c-2.588 9.66-9.143 14.805-20.412 11.785l-25.758-6.901c-11.27-3.02-14.373-10.754-11.785-20.413L-23.97 8.4C-21.38-1.26-14.826-6.405-3.557-3.386l25.758 6.902c11.27 3.02 14.374 10.753 11.786 20.413Z" stroke="#fff" stroke-width="5" stroke-miterlimit="10" stroke-linecap="round" stroke-linejoin="round"/><path d="m15.215 10.271-1.725 6.44c-.95 3.542 1.172 7.216 4.714 8.165l6.44 1.725M-13.046 32.031l12.879 3.451M-16.497 44.91 9.26 51.812M13.281 101.204l-8.627 32.198c-2.588 9.659-9.144 14.804-20.413 11.785l-25.758-6.902c-11.269-3.02-14.373-10.753-11.785-20.413l8.627-32.197c2.589-9.66 9.144-14.805 20.413-11.785l25.758 6.902c11.27 3.02 14.373 10.753 11.785 20.412Z" stroke="#fff" stroke-width="5" stroke-miterlimit="10" stroke-linecap="round" stroke-linejoin="round"/><path d="m-5.49 87.547-1.726 6.44c-.949 3.541 1.173 7.215 4.714 8.164l6.44 1.726M111.261 44.636l-8.628 32.197c-2.588 9.66-9.143 14.805-20.412 11.785l-25.758-6.901c-11.27-3.02-14.373-10.754-11.785-20.413l8.627-32.197c2.588-9.66 9.143-14.805 20.412-11.785l25.758 6.901c11.27 3.02 14.374 10.754 11.786 20.413Z" stroke="#fff" stroke-width="5" stroke-miterlimit="10" stroke-linecap="round" stroke-linejoin="round"/><path d="m92.49 30.979-1.726 6.439c-.95 3.542 1.172 7.216 4.714 8.165l6.439 1.725M64.228 52.738l12.879 3.451M60.777 65.617l25.758 6.902M90.555 121.909l-8.627 32.198c-2.588 9.659-9.144 14.804-20.413 11.785l-25.758-6.902c-11.269-3.02-14.373-10.753-11.785-20.412L32.6 106.38c2.589-9.66 9.144-14.805 20.413-11.785l25.758 6.902c11.269 3.019 14.373 10.753 11.785 20.412Z" stroke="#fff" stroke-width="5" stroke-miterlimit="10" stroke-linecap="round" stroke-linejoin="round"/><path d="m71.784 108.252-1.726 6.439c-.949 3.542 1.172 7.216 4.714 8.165l6.44 1.726M43.522 130.012l12.879 3.451M40.071 142.891l25.758 6.901M188.535 65.34l-8.627 32.198c-2.589 9.66-9.144 14.805-20.413 11.785l-25.758-6.901c-11.269-3.02-14.373-10.754-11.785-20.413l8.627-32.197c2.589-9.66 9.144-14.805 20.413-11.785l25.758 6.901c11.269 3.02 14.373 10.754 11.785 20.413Z" stroke="#fff" stroke-width="5" stroke-miterlimit="10" stroke-linecap="round" stroke-linejoin="round"/><path d="m169.764 51.684-1.726 6.44c-.949 3.54 1.173 7.215 4.714 8.164l6.44 1.725M141.502 73.443l12.879 3.451M138.051 86.322l25.758 6.902M167.829 142.614l-8.627 32.198c-2.588 9.659-9.143 14.804-20.412 11.785l-25.758-6.902c-11.269-3.02-14.374-10.753-11.785-20.412l8.627-32.198c2.588-9.659 9.143-14.805 20.412-11.785l25.758 6.902c11.269 3.019 14.374 10.753 11.785 20.412Z" stroke="#fff" stroke-width="5" stroke-miterlimit="10" stroke-linecap="round" stroke-linejoin="round"/><path d="m149.058 128.957-1.725 6.44c-.949 3.541 1.172 7.215 4.714 8.165l6.439 1.725M120.796 150.717l12.879 3.451M117.346 163.596l25.758 6.902M265.809 86.046l-8.627 32.197c-2.589 9.66-9.144 14.805-20.413 11.786l-25.758-6.902c-11.269-3.02-14.373-10.753-11.785-20.413l8.627-32.197c2.589-9.66 9.144-14.805 20.413-11.785l25.758 6.901c11.269 3.02 14.373 10.754 11.785 20.413ZM245.103 163.319l-8.627 32.198c-2.588 9.659-9.143 14.805-20.412 11.785l-25.758-6.902c-11.27-3.019-14.374-10.753-11.786-20.412l8.628-32.198c2.588-9.659 9.143-14.804 20.412-11.785l25.758 6.902c11.269 3.019 14.374 10.753 11.785 20.412ZM198.07 171.422l12.879 3.451M194.62 184.301l25.758 6.902" stroke="#fff" stroke-width="5" stroke-miterlimit="10" stroke-linecap="round" stroke-linejoin="round"/></g><defs><clipPath id="a"><path fill="#fff" d="M0 0h200v200H0z"/></clipPath></defs></svg>
