<svg width="200" height="200" viewBox="0 0 200 200" fill="none" xmlns="http://www.w3.org/2000/svg"><g clip-path="url(#a)"><path fill="#fff" d="M0 0h200v200H0z"/><path fill="#1752FE" d="M10.44-59.635 269.676 9.827l-47.07 175.67-259.237-69.462z"/><path d="m-42.17-48.836 5.603 1.501c3.477.932 5.412 4.66 4.199 8.027L-43.633-7.955c-1.857 5.127 1.088 10.748 6.369 12.163l34.29 9.188c4.636 1.242 9.711-1.47 11.3-5.98l8.208-23.682c1.819-5.241-1.073-10.675-6.45-12.116l-41.567-11.137M35.105-28.13l5.602 1.5c3.477.932 5.412 4.66 4.199 8.027L33.64 12.75c-1.857 5.127 1.088 10.748 6.369 12.163L74.3 34.1c4.636 1.242 9.711-1.47 11.3-5.98L93.807 4.44c1.819-5.241-1.073-10.675-6.45-12.115L45.79-18.814M63.732 48.56a4.167 4.167 0 1 0 2.156-8.05 4.167 4.167 0 0 0-2.156 8.05ZM37.973 41.657a4.167 4.167 0 1 0 2.157-8.05 4.167 4.167 0 0 0-2.157 8.05ZM52.467-2.771 91.104 7.58M14.399 49.145l5.602 1.5c3.478.932 5.412 4.66 4.2 8.028L12.934 90.025c-1.857 5.128 1.089 10.748 6.369 12.163l34.29 9.188c4.637 1.243 9.712-1.47 11.3-5.979l8.209-23.682c1.818-5.242-1.074-10.675-6.45-12.116L25.084 58.46M43.026 125.835a4.168 4.168 0 1 0 2.156-8.052 4.168 4.168 0 0 0-2.156 8.052ZM17.268 118.932a4.166 4.166 0 1 0 2.158-8.048 4.166 4.166 0 0 0-2.158 8.048ZM31.761 74.504l38.637 10.353M112.379-7.426l5.602 1.501c3.478.932 5.412 4.66 4.199 8.027l-11.265 31.353c-1.857 5.127 1.089 10.748 6.369 12.163l34.29 9.188c4.637 1.242 9.712-1.47 11.3-5.98l8.209-23.682c1.818-5.24-1.074-10.675-6.451-12.115L123.065 1.89M141.006 69.264a4.166 4.166 0 1 0 2.157-8.048 4.166 4.166 0 0 0-2.157 8.048ZM115.248 62.362a4.167 4.167 0 1 0 2.157-8.05 4.167 4.167 0 0 0-2.157 8.05ZM129.741 17.934l38.637 10.352M91.673 69.85l5.603 1.5c3.477.933 5.411 4.66 4.199 8.028L90.209 110.73c-1.857 5.128 1.089 10.748 6.37 12.163l34.29 9.188c4.636 1.243 9.711-1.47 11.299-5.979l8.209-23.682c1.819-5.242-1.074-10.675-6.451-12.116L102.36 79.166M120.3 146.54a4.167 4.167 0 1 0 2.158-8.048 4.167 4.167 0 0 0-2.158 8.048ZM94.542 139.638a4.167 4.167 0 1 0 2.156-8.051 4.167 4.167 0 0 0-2.156 8.051ZM109.036 95.209l38.637 10.353M189.653 13.281l5.602 1.501c3.478.932 5.412 4.66 4.199 8.027l-11.265 31.353c-1.857 5.127 1.089 10.748 6.369 12.163l34.29 9.188c4.637 1.242 9.712-1.47 11.3-5.98l8.209-23.682c1.818-5.24-1.074-10.675-6.451-12.115l-41.567-11.138M192.522 83.07a4.167 4.167 0 1 0 2.156-8.051 4.167 4.167 0 0 0-2.156 8.05ZM168.947 90.555l5.603 1.5c3.477.933 5.411 4.66 4.199 8.028l-11.266 31.352c-1.857 5.128 1.089 10.748 6.369 12.163l34.291 9.188c4.636 1.243 9.711-1.47 11.299-5.979l8.209-23.682c1.819-5.241-1.074-10.675-6.451-12.116l-41.567-11.138M197.574 167.245a4.167 4.167 0 1 0 2.158-8.048 4.167 4.167 0 0 0-2.158 8.048ZM171.816 160.343a4.167 4.167 0 1 0 2.156-8.05 4.167 4.167 0 0 0-2.156 8.05ZM186.31 115.914l38.637 10.353" stroke="#fff" stroke-width="5" stroke-miterlimit="10" stroke-linecap="round" stroke-linejoin="round"/></g><defs><clipPath id="a"><path fill="#fff" d="M0 0h200v200H0z"/></clipPath></defs></svg>