<svg width="200" height="200" viewBox="0 0 200 200" fill="none" xmlns="http://www.w3.org/2000/svg"><g clip-path="url(#a)"><path fill="#fff" d="M0 0h200v200H0z"/><path fill="#1752FE" d="M10.44-59.635 269.676 9.827l-47.07 175.67-259.237-69.462z"/><path d="m-3.41 6.423 2.63 12.852c.35 1.784 2.005 3.85 3.666 4.605l9.813 4.459c6.275 2.855 6.544 8.034.551 11.467L3.126 45.65c-1.715.99-3.154 3.4-3.236 5.38l-.363 10.496c-.293 8.307-5.257 10.221-11.084 4.277l-8.1-8.278c-1.463-1.497-4.328-2.264-6.375-1.709l-11.155 3.12c-7.985 2.243-11.352-1.938-7.46-9.246l4.934-9.272c.919-1.756.877-4.562-.113-6.277l-5.845-10.124c-3.441-5.96-.651-10.32 6.21-9.655l10.729 1.045c1.784.168 4.25-.793 5.445-2.164l8.704-9.815C-9.844-1.893-4.822-.547-3.411 6.423ZM73.863 27.13l2.63 12.852c.35 1.784 2.006 3.85 3.666 4.605l9.814 4.459c6.275 2.855 6.544 8.034.551 11.467L80.4 66.358c-1.715.99-3.154 3.4-3.236 5.38L76.8 82.233c-.293 8.308-5.258 10.221-11.084 4.277l-8.1-8.278c-1.463-1.497-4.328-2.264-6.375-1.709l-11.154 3.12c-7.986 2.243-11.353-1.938-7.462-9.246l4.935-9.272c.919-1.756.877-4.562-.113-6.277l-5.845-10.124c-3.442-5.96-.651-10.32 6.21-9.655l10.728 1.045c1.785.168 4.25-.793 5.446-2.164l8.704-9.815c4.739-5.322 9.761-3.976 11.172 2.994ZM53.158 104.403l2.63 12.852c.35 1.785 2.005 3.85 3.666 4.606l9.814 4.458c6.275 2.855 6.543 8.034.55 11.467l-10.124 5.845c-1.715.99-3.154 3.4-3.236 5.38l-.362 10.497c-.294 8.307-5.258 10.221-11.085 4.277l-8.1-8.279c-1.462-1.496-4.328-2.264-6.375-1.708l-11.154 3.119c-7.986 2.243-11.352-1.937-7.461-9.246l4.934-9.272c.92-1.755.878-4.562-.112-6.276l-5.846-10.125c-3.441-5.96-.65-10.32 6.21-9.655l10.729 1.046c1.784.167 4.25-.794 5.446-2.164l8.703-9.816c4.739-5.321 9.762-3.975 11.173 2.994ZM94.569-50.146l2.63 12.852c.35 1.785 2.005 3.85 3.666 4.606l9.814 4.459c6.275 2.854 6.543 8.034.551 11.466l-10.125 5.846c-1.714.99-3.154 3.4-3.236 5.379l-.362 10.497c-.294 8.307-5.258 10.22-11.085 4.277l-8.1-8.279C76.86-.539 73.994-1.307 71.947-.75l-11.154 3.12C52.807 4.61 49.441.43 53.332-6.879l4.934-9.272c.92-1.755.878-4.562-.112-6.276l-5.846-10.125c-3.44-5.96-.65-10.32 6.21-9.655l10.73 1.046c1.783.167 4.25-.794 5.445-2.164l8.703-9.815c4.74-5.322 9.762-3.976 11.173 2.993ZM151.138 47.835l2.63 12.852c.35 1.784 2.005 3.85 3.666 4.606l9.814 4.458c6.275 2.855 6.543 8.034.551 11.467l-10.125 5.845c-1.715.99-3.154 3.4-3.236 5.38l-.362 10.496c-.294 8.308-5.258 10.221-11.085 4.277l-8.1-8.278c-1.463-1.496-4.328-2.264-6.375-1.709l-11.154 3.12c-7.986 2.243-11.352-1.938-7.461-9.246l4.934-9.272c.919-1.756.878-4.562-.112-6.277l-5.846-10.124c-3.441-5.96-.651-10.32 6.211-9.655l10.728 1.046c1.784.167 4.25-.794 5.446-2.165l8.703-9.815c4.739-5.322 9.762-3.976 11.173 2.994ZM130.432 125.108l2.63 12.852c.35 1.785 2.005 3.85 3.666 4.606l9.814 4.458c6.275 2.855 6.544 8.035.551 11.467l-10.124 5.846c-1.715.99-3.154 3.399-3.236 5.379l-.363 10.497c-.293 8.307-5.258 10.221-11.084 4.277l-8.1-8.279c-1.463-1.496-4.329-2.264-6.376-1.708l-11.154 3.119c-7.986 2.243-11.352-1.937-7.46-9.246l4.934-9.272c.919-1.755.877-4.562-.113-6.276l-5.845-10.125c-3.442-5.96-.651-10.32 6.21-9.655l10.728 1.046c1.784.167 4.251-.794 5.446-2.164l8.704-9.816c4.738-5.321 9.761-3.975 11.172 2.994ZM171.843-29.44l2.63 12.851c.35 1.785 2.005 3.85 3.666 4.606l9.814 4.459c6.275 2.854 6.544 8.034.551 11.466L178.38 9.788c-1.715.99-3.154 3.4-3.236 5.379l-.363 10.497c-.293 8.307-5.258 10.22-11.084 4.277l-8.1-8.279c-1.463-1.496-4.329-2.264-6.375-1.708l-11.155 3.12c-7.985 2.242-11.352-1.938-7.461-9.247l4.935-9.272c.919-1.755.877-4.561-.113-6.276l-5.845-10.125c-3.441-5.96-.651-10.32 6.21-9.655l10.729 1.046c1.784.167 4.25-.794 5.445-2.164l8.704-9.815c4.739-5.322 9.761-3.976 11.172 2.993ZM228.412 68.54l2.63 12.852c.35 1.785 2.005 3.85 3.666 4.606l9.814 4.458c6.275 2.855 6.543 8.034.551 11.467l-10.125 5.845c-1.715.99-3.154 3.4-3.236 5.379l-.362 10.498c-.294 8.307-5.258 10.22-11.085 4.276l-8.1-8.278c-1.463-1.496-4.328-2.264-6.375-1.708l-11.154 3.119c-7.986 2.243-11.352-1.937-7.461-9.246l4.934-9.272c.919-1.756.877-4.562-.112-6.277l-5.846-10.124c-3.441-5.96-.651-10.32 6.211-9.655l10.728 1.045c1.784.168 4.25-.793 5.446-2.164l8.703-9.815c4.739-5.321 9.762-3.976 11.173 2.994ZM207.706 145.813l2.63 12.852c.35 1.785 2.005 3.85 3.666 4.606l9.814 4.459c6.275 2.854 6.544 8.034.551 11.466l-10.125 5.846c-1.714.99-3.154 3.399-3.235 5.379l-.363 10.497c-.293 8.307-5.258 10.221-11.085 4.277l-8.1-8.279c-1.462-1.496-4.328-2.264-6.375-1.708l-11.154 3.119c-7.986 2.243-11.352-1.937-7.461-9.246l4.935-9.272c.919-1.755.877-4.562-.113-6.276l-5.845-10.125c-3.442-5.96-.652-10.32 6.21-9.655l10.728 1.046c1.784.167 4.251-.794 5.446-2.164l8.704-9.815c4.738-5.322 9.761-3.976 11.172 2.993Z" stroke="#fff" stroke-width="5" stroke-linecap="round" stroke-linejoin="round"/></g><defs><clipPath id="a"><path fill="#fff" d="M0 0h200v200H0z"/></clipPath></defs></svg>